<svg width="18" height="19" viewBox="0 0 18 19" fill="none" xmlns="http://www.w3.org/2000/svg">
<path d="M16.3836 15.0562C15.9559 14.0386 15.3351 13.1143 14.5559 12.3348C13.7791 11.5531 12.8589 10.9298 11.8461 10.4994C11.837 10.4948 11.828 10.4925 11.8189 10.488C13.2316 9.46321 14.15 7.79397 14.15 5.91067C14.15 2.79082 11.633 0.263062 8.52632 0.263062C5.41967 0.263062 2.90261 2.79082 2.90261 5.91067C2.90261 7.79397 3.821 9.4632 5.23373 10.4903C5.22466 10.4948 5.21559 10.4971 5.20652 10.5016C4.19062 10.932 3.27904 11.5492 2.49671 12.3371C1.71826 13.1172 1.0976 14.0413 0.669005 15.0584C0.247958 16.0542 0.0208779 17.1217 5.67042e-05 18.2033C-0.000548536 18.2276 0.00369651 18.2518 0.0125418 18.2745C0.0213872 18.2971 0.0346537 18.3177 0.0515598 18.3351C0.0684659 18.3525 0.0886695 18.3663 0.11098 18.3758C0.133291 18.3852 0.157257 18.3901 0.181466 18.3901H1.54204C1.64182 18.3901 1.72118 18.3104 1.72345 18.2125C1.7688 16.4544 2.47176 14.8079 3.71442 13.56C5.00016 12.2688 6.70768 11.5583 8.52632 11.5583C10.3449 11.5583 12.0525 12.2688 13.3382 13.56C14.5809 14.8079 15.2838 16.4544 15.3292 18.2125C15.3314 18.3127 15.4108 18.3901 15.5106 18.3901H16.8712C16.8954 18.3901 16.9193 18.3852 16.9417 18.3758C16.964 18.3663 16.9842 18.3525 17.0011 18.3351C17.018 18.3177 17.0312 18.2971 17.0401 18.2745C17.0489 18.2518 17.0532 18.2276 17.0526 18.2033C17.0299 17.1148 16.8054 16.0559 16.3836 15.0562ZM8.52632 9.82757C7.48548 9.82757 6.50586 9.41994 5.76889 8.67983C5.03191 7.93972 4.62601 6.95594 4.62601 5.91067C4.62601 4.86541 5.03191 3.88163 5.76889 3.14152C6.50586 2.40141 7.48548 1.99378 8.52632 1.99378C9.56715 1.99378 10.5468 2.40141 11.2837 3.14152C12.0207 3.88163 12.4266 4.86541 12.4266 5.91067C12.4266 6.95594 12.0207 7.93972 11.2837 8.67983C10.5468 9.41994 9.56715 9.82757 8.52632 9.82757Z" fill="#FDF5FF"/>
</svg>
