<svg width="7" height="9" viewBox="0 0 7 9" fill="none" xmlns="http://www.w3.org/2000/svg">
<path fill-rule="evenodd" clip-rule="evenodd" d="M3.50063 0.368896C3.63324 0.368896 3.76042 0.421947 3.85419 0.516377C3.94795 0.610806 4.00063 0.738881 4.00063 0.872425L4.00063 6.7063L6.14663 4.54415C6.19312 4.49734 6.24831 4.4602 6.30905 4.43486C6.36979 4.40953 6.43489 4.39649 6.50063 4.39649C6.56638 4.39649 6.63148 4.40953 6.69222 4.43486C6.75295 4.4602 6.80814 4.49734 6.85463 4.54415C6.90112 4.59097 6.938 4.64655 6.96316 4.70771C6.98831 4.76888 7.00126 4.83444 7.00126 4.90065C7.00126 4.96686 6.98831 5.03242 6.96316 5.09359C6.938 5.15475 6.90112 5.21033 6.85463 5.25715L3.85463 8.27832C3.80819 8.32521 3.75301 8.36241 3.69227 8.3878C3.63152 8.41318 3.5664 8.42625 3.50063 8.42625C3.43486 8.42625 3.36974 8.41318 3.309 8.3878C3.24825 8.36241 3.19308 8.32521 3.14663 8.27832L0.146632 5.25715C0.100144 5.21033 0.0632674 5.15475 0.0381083 5.09359C0.0129493 5.03242 0 4.96686 0 4.90065C0 4.83444 0.0129493 4.76888 0.0381083 4.70771C0.0632674 4.64655 0.100144 4.59097 0.146632 4.54415C0.240518 4.4496 0.367856 4.39649 0.500632 4.39649C0.566376 4.39649 0.631476 4.40953 0.692215 4.43486C0.752955 4.4602 0.808144 4.49734 0.854632 4.54415L3.00063 6.7063L3.00063 0.872425C3.00063 0.738881 3.05331 0.610806 3.14708 0.516377C3.24085 0.421947 3.36802 0.368896 3.50063 0.368896Z" fill="#CE461B"/>
</svg>
