<svg width="14" height="17" viewBox="0 0 14 17" fill="none" xmlns="http://www.w3.org/2000/svg">
<path d="M13.4373 11.6752C13.378 11.6032 13.3198 11.5313 13.2627 11.4619C12.4769 10.5048 12.0016 9.92719 12.0016 7.21785C12.0016 5.81516 11.6684 4.66424 11.0116 3.80105C10.5273 3.16337 9.87266 2.67962 9.0098 2.32212C8.9987 2.31589 8.98878 2.30774 8.98052 2.29802C8.67016 1.2514 7.82087 0.550415 6.86302 0.550415C5.90516 0.550415 5.05623 1.2514 4.74587 2.29694C4.73759 2.3063 4.72781 2.3142 4.71694 2.32032C2.70337 3.15509 1.7248 4.75667 1.7248 7.21677C1.7248 9.92719 1.25016 10.5048 0.46373 11.4608C0.406587 11.5302 0.348373 11.6007 0.289087 11.6741C0.135944 11.8601 0.038916 12.0863 0.00948468 12.3261C-0.0199466 12.5659 0.0194512 12.8092 0.123016 13.0271C0.343373 13.4947 0.813016 13.7849 1.34909 13.7849H12.3809C12.9144 13.7849 13.3809 13.495 13.6019 13.0296C13.706 12.8116 13.7457 12.5682 13.7165 12.3281C13.6874 12.0881 13.5905 11.8614 13.4373 11.6752ZM6.86302 16.6633C7.3791 16.6629 7.88545 16.5218 8.32836 16.255C8.77127 15.9883 9.13422 15.6058 9.37873 15.1481C9.39025 15.1261 9.39594 15.1016 9.39525 15.0768C9.39455 15.052 9.3875 15.0278 9.37478 15.0065C9.36205 14.9853 9.34409 14.9677 9.32263 14.9555C9.30117 14.9433 9.27694 14.9369 9.2523 14.9369H4.47444C4.44977 14.9368 4.4255 14.9432 4.40399 14.9554C4.38248 14.9675 4.36447 14.9851 4.3517 15.0064C4.33894 15.0276 4.33185 15.0518 4.33114 15.0767C4.33044 15.1015 4.33613 15.1261 4.34766 15.1481C4.59213 15.6057 4.95503 15.9882 5.39788 16.255C5.84072 16.5217 6.34699 16.6628 6.86302 16.6633Z" fill="#FDF7FF"/>
</svg>
