<svg width="17" height="19" viewBox="0 0 17 19" fill="none" xmlns="http://www.w3.org/2000/svg">
<path d="M1.8 18.376H14.4C15.3927 18.376 16.2 17.563 16.2 16.5633V6.59348C16.2 6.3531 16.1052 6.12257 15.9364 5.95259C15.7676 5.78262 15.5387 5.68713 15.3 5.68713H12.6V4.78078C12.6 2.28197 10.5813 0.249023 8.1 0.249023C5.6187 0.249023 3.6 2.28197 3.6 4.78078V5.68713H0.9C0.661305 5.68713 0.432387 5.78262 0.263604 5.95259C0.0948211 6.12257 0 6.3531 0 6.59348V16.5633C0 17.563 0.8073 18.376 1.8 18.376ZM5.4 4.78078C5.4 3.28167 6.6114 2.06173 8.1 2.06173C9.5886 2.06173 10.8 3.28167 10.8 4.78078V5.68713H5.4V4.78078ZM1.8 7.49983H3.6V9.31253H5.4V7.49983H10.8V9.31253H12.6V7.49983H14.4L14.4018 16.5633H1.8V7.49983Z" fill="white"/>
</svg>
