<svg width="18" height="19" viewBox="0 0 18 19" fill="none" xmlns="http://www.w3.org/2000/svg">
<path d="M8.18182 6.84066H11.4545C11.6715 6.84066 11.8797 6.75385 12.0331 6.59933C12.1865 6.44481 12.2727 6.23524 12.2727 6.01671C12.2727 5.79818 12.1865 5.58861 12.0331 5.43408C11.8797 5.27956 11.6715 5.19275 11.4545 5.19275H9.81818V4.3688C9.81818 4.15027 9.73198 3.9407 9.57854 3.78617C9.42511 3.63165 9.217 3.54484 9 3.54484C8.78301 3.54484 8.5749 3.63165 8.42146 3.78617C8.26802 3.9407 8.18182 4.15027 8.18182 4.3688V5.19275C7.53083 5.19275 6.90651 5.45318 6.44619 5.91675C5.98588 6.38031 5.72728 7.00904 5.72728 7.66462C5.72728 8.3202 5.98588 8.94893 6.44619 9.41249C6.90651 9.87606 7.53083 10.1365 8.18182 10.1365H9.81818C10.0352 10.1365 10.2433 10.2233 10.3967 10.3778C10.5502 10.5323 10.6364 10.7419 10.6364 10.9604C10.6364 11.179 10.5502 11.3885 10.3967 11.5431C10.2433 11.6976 10.0352 11.7844 9.81818 11.7844H6.54546C6.32846 11.7844 6.12035 11.8712 5.96692 12.0257C5.81348 12.1802 5.72728 12.3898 5.72728 12.6083C5.72728 12.8269 5.81348 13.0365 5.96692 13.191C6.12035 13.3455 6.32846 13.4323 6.54546 13.4323H8.18182V14.2563C8.18182 14.4748 8.26802 14.6844 8.42146 14.8389C8.5749 14.9934 8.78301 15.0802 9 15.0802C9.217 15.0802 9.42511 14.9934 9.57854 14.8389C9.73198 14.6844 9.81818 14.4748 9.81818 14.2563V13.4323C10.4692 13.4323 11.0935 13.1719 11.5538 12.7083C12.0141 12.2447 12.2727 11.616 12.2727 10.9604C12.2727 10.3049 12.0141 9.67613 11.5538 9.21257C11.0935 8.749 10.4692 8.48857 9.81818 8.48857H8.18182C7.96482 8.48857 7.75672 8.40176 7.60328 8.24724C7.44984 8.09272 7.36364 7.88315 7.36364 7.66462C7.36364 7.44609 7.44984 7.23652 7.60328 7.08199C7.75672 6.92747 7.96482 6.84066 8.18182 6.84066ZM9 0.249023C7.21997 0.249023 5.47991 0.780589 3.99987 1.7765C2.51983 2.77241 1.36628 4.18794 0.685088 5.84408C0.00389957 7.50021 -0.17433 9.32258 0.172936 11.0807C0.520203 12.8389 1.37737 14.4538 2.63604 15.7214C3.89471 16.989 5.49836 17.8522 7.24419 18.2019C8.99002 18.5516 10.7996 18.3721 12.4442 17.6861C14.0887 17.0001 15.4943 15.8384 16.4832 14.3479C17.4722 12.8575 18 11.1051 18 9.31253C18 6.90874 17.0518 4.6034 15.364 2.90366C13.6761 1.20393 11.3869 0.249023 9 0.249023ZM9 16.7281C7.54361 16.7281 6.11993 16.2932 4.90899 15.4784C3.69804 14.6635 2.75423 13.5054 2.19689 12.1504C1.63955 10.7953 1.49373 9.3043 1.77786 7.86582C2.06198 6.42733 2.7633 5.106 3.79313 4.06891C4.82295 3.03182 6.13502 2.32555 7.56343 2.03942C8.99183 1.75329 10.4724 1.90014 11.8179 2.46141C13.1635 3.02268 14.3135 3.97316 15.1226 5.19265C15.9318 6.41213 16.3636 7.84586 16.3636 9.31253C16.3636 11.2793 15.5878 13.1655 14.2069 14.5561C12.8259 15.9468 10.953 16.7281 9 16.7281Z" fill="#FFF6F2"/>
</svg>
