<svg width="4" height="18" viewBox="0 0 4 18" fill="none" xmlns="http://www.w3.org/2000/svg">
<path d="M1.6 4.20549C2.48366 4.20549 3.2 3.48409 3.2 2.5942C3.2 1.70431 2.48366 0.98291 1.6 0.98291C0.716344 0.98291 0 1.70431 0 2.5942C0 3.48409 0.716344 4.20549 1.6 4.20549Z" fill="#310E3A"/>
<path d="M1.6 10.6507C2.48366 10.6507 3.2 9.92928 3.2 9.03939C3.2 8.1495 2.48366 7.4281 1.6 7.4281C0.716344 7.4281 0 8.1495 0 9.03939C0 9.92928 0.716344 10.6507 1.6 10.6507Z" fill="#310E3A"/>
<path d="M1.6 17.0957C2.48366 17.0957 3.2 16.3744 3.2 15.4845C3.2 14.5946 2.48366 13.8732 1.6 13.8732C0.716344 13.8732 0 14.5946 0 15.4845C0 16.3744 0.716344 17.0957 1.6 17.0957Z" fill="#310E3A"/>
</svg>
