<svg width="7" height="9" viewBox="0 0 7 9" fill="none" xmlns="http://www.w3.org/2000/svg">
<path fill-rule="evenodd" clip-rule="evenodd" d="M3.50059 8.44043C3.36798 8.44043 3.2408 8.38738 3.14704 8.29295C3.05327 8.19852 3.00059 8.07045 3.00059 7.9369L3.00059 2.10302L0.854589 4.26517C0.808102 4.31199 0.752912 4.34913 0.692173 4.37446C0.631433 4.3998 0.566333 4.41284 0.500589 4.41284C0.434845 4.41284 0.369745 4.3998 0.309006 4.37446C0.248266 4.34913 0.193077 4.31199 0.146589 4.26517C0.100101 4.21836 0.0632247 4.16278 0.0380658 4.10161C0.0129069 4.04044 -4.20509e-05 3.97488 -4.20451e-05 3.90868C-4.20394e-05 3.84247 0.012907 3.77691 0.0380658 3.71574C0.0632247 3.65457 0.100101 3.59899 0.146589 3.55218L3.14659 0.531009C3.19304 0.484117 3.24821 0.446914 3.30896 0.421529C3.3697 0.396146 3.43482 0.383078 3.50059 0.383078C3.56636 0.383078 3.63148 0.396146 3.69222 0.421529C3.75297 0.446914 3.80814 0.484117 3.85459 0.531009L6.85459 3.55218C6.90108 3.59899 6.93795 3.65457 6.96311 3.71574C6.98827 3.77691 7.00122 3.84247 7.00122 3.90868C7.00122 3.97488 6.98827 4.04044 6.96311 4.10161C6.93795 4.16278 6.90108 4.21836 6.85459 4.26517C6.7607 4.35972 6.63336 4.41284 6.50059 4.41284C6.43485 4.41284 6.36975 4.3998 6.30901 4.37446C6.24827 4.34913 6.19308 4.31199 6.14659 4.26517L4.00059 2.10302L4.00059 7.9369C4.00059 8.07045 3.94791 8.19852 3.85414 8.29295C3.76037 8.38738 3.6332 8.44043 3.50059 8.44043Z" fill="#55CE1B"/>
</svg>
